<?xml version="1.0" encoding="UTF-8" standalone="no"?>
<!-- Created with Inkscape (http://www.inkscape.org/) -->
<svg
   xmlns:xml="http://www.w3.org/XML/1998/namespace"
   xmlns:dc="http://purl.org/dc/elements/1.1/"
   xmlns:cc="http://web.resource.org/cc/"
   xmlns:rdf="http://www.w3.org/1999/02/22-rdf-syntax-ns#"
   xmlns:svg="http://www.w3.org/2000/svg"
   xmlns="http://www.w3.org/2000/svg"
   xmlns:sodipodi="http://inkscape.sourceforge.net/DTD/sodipodi-0.dtd"
   xmlns:inkscape="http://www.inkscape.org/namespaces/inkscape"
   inkscape:export-ydpi="90.000000"
   inkscape:export-xdpi="90.000000"
   inkscape:export-filename="/Users/phil/Documents/work/metacarta/2svn.openlayers.net/follower/code/b-edits-1/openlayers/assets/ui_elements/zoom-minus-mini.png"
   sodipodi:docname="zoom-world.svg"
   sodipodi:docbase="/afs/metacarta.com/user/sderle/OL/openlayers/assets/ui_elements"
   inkscape:version="0.41.1"
   sodipodi:version="0.32"
   id="svg2"
   height="18.000000px"
   width="18.000000px">
  <defs
     id="defs4" />
  <sodipodi:namedview
     inkscape:window-y="26"
     inkscape:window-x="42"
     inkscape:window-height="800"
     inkscape:window-width="1226"
     inkscape:current-layer="layer5"
     inkscape:document-units="px"
     inkscape:cy="9.3025513"
     inkscape:cx="9.0000000"
     inkscape:zoom="1.0000000"
     inkscape:pageshadow="2"
     inkscape:pageopacity="0.0"
     borderopacity="1.0"
     bordercolor="#666666"
     pagecolor="#ffffff"
     id="base" />
  <metadata
     id="metadata7">
    <rdf:RDF
       id="RDF1295">
      <cc:Work
         id="Work1297"
         rdf:about="">
        <dc:format
           id="format1299">image/svg+xml</dc:format>
        <dc:type
           id="type1301"
           rdf:resource="http://purl.org/dc/dcmitype/StillImage" />
      </cc:Work>
    </rdf:RDF>
  </metadata>
  <g
     style="display:inline"
     id="layer1"
     inkscape:groupmode="layer"
     inkscape:label="background">
    <rect
       style="fill:#00008b;fill-opacity:1.0000000;stroke:none;stroke-width:39.984146;stroke-linejoin:round;stroke-miterlimit:4.0000000;stroke-opacity:1.0000000"
       id="rect2061"
       width="18.014498"
       height="18.000000"
       x="-18.014502"
       y="4.3599998e-06"
       transform="matrix(0.000000,-1.000000,1.000000,0.000000,0.000000,0.000000)" />
  </g>
  <g
     inkscape:label="graticule"
     id="layer5"
     inkscape:groupmode="layer">
    <g
       transform="translate(0.000000,-4.419417e-2)"
       id="g2876">
      <path
         transform="matrix(1.155321,0.000000,0.000000,1.155321,-2.292065,-1.751761)"
         d="M 16.869573 9.3188362 A 7.0579743 7.0579743 0 1 1  2.7536244,9.3188362 A 7.0579743 7.0579743 0 1 1  16.869573 9.3188362 z"
         sodipodi:ry="7.0579743"
         sodipodi:rx="7.0579743"
         sodipodi:cy="9.3188362"
         sodipodi:cx="9.8115988"
         id="path1321"
         style="fill:none;fill-opacity:1.0000000;stroke:#ffffff;stroke-width:0.50000000;stroke-miterlimit:4.0000000;stroke-opacity:1.0000000"
         sodipodi:type="arc" />
      <path
         sodipodi:nodetypes="cc"
         id="path2086"
         d="M 8.1145142,1.1289949 C 15.315267,9.5238831 8.3963197,17.101449 8.3963197,17.057255"
         style="fill:none;fill-opacity:0.75000000;fill-rule:evenodd;stroke:#ffffff;stroke-width:0.50000000;stroke-linecap:butt;stroke-linejoin:miter;stroke-miterlimit:4.0000000;stroke-opacity:1.0000000" />
      <path
         sodipodi:nodetypes="cc"
         id="path2846"
         d="M 11.588885,1.3666059 C 18.922222,9.5405232 11.605526,16.764536 11.605526,16.764536"
         style="fill:none;fill-opacity:0.75000000;fill-rule:evenodd;stroke:#ffffff;stroke-width:0.50000000;stroke-linecap:butt;stroke-linejoin:miter;stroke-miterlimit:4.0000000;stroke-opacity:1.0000000" />
      <path
         sodipodi:nodetypes="cc"
         id="path2848"
         d="M 5.2258471,2.0593951 C 11.080923,9.7405585 5.3432210,16.278941 5.3432210,16.278941"
         style="fill:none;fill-opacity:0.75000000;fill-rule:evenodd;stroke:#ffffff;stroke-width:0.50000000;stroke-linecap:butt;stroke-linejoin:miter;stroke-miterlimit:4.0000000;stroke-opacity:1.0000000" />
      <path
         sodipodi:nodetypes="cc"
         id="path2850"
         d="M 2.7388198,3.7571959 C 6.3686281,9.1817837 2.9127331,14.361601 2.9127331,14.361601"
         style="fill:none;fill-opacity:0.75000000;fill-rule:evenodd;stroke:#ffffff;stroke-width:0.50000000;stroke-linecap:butt;stroke-linejoin:miter;stroke-miterlimit:4.0000000;stroke-opacity:1.0000000" />
    </g>
    <g
       transform="matrix(-6.269315e-2,0.998033,-0.998033,-6.269315e-2,18.62352,0.612232)"
       id="g2883">
      <path
         transform="matrix(1.155321,0.000000,0.000000,1.155321,-2.292065,-1.751761)"
         d="M 16.869573 9.3188362 A 7.0579743 7.0579743 0 1 1  2.7536244,9.3188362 A 7.0579743 7.0579743 0 1 1  16.869573 9.3188362 z"
         sodipodi:ry="7.0579743"
         sodipodi:rx="7.0579743"
         sodipodi:cy="9.3188362"
         sodipodi:cx="9.8115988"
         id="path2885"
         style="fill:none;fill-opacity:1.0000000;stroke:#ffffff;stroke-width:0.50000000;stroke-miterlimit:4.0000000;stroke-opacity:1.0000000"
         sodipodi:type="arc" />
      <path
         sodipodi:nodetypes="cc"
         id="path2887"
         d="M 8.1145142,1.1289949 C 15.315267,9.5238831 8.3963197,17.101449 8.3963197,17.057255"
         style="fill:none;fill-opacity:0.75000000;fill-rule:evenodd;stroke:#ffffff;stroke-width:0.50000000;stroke-linecap:butt;stroke-linejoin:miter;stroke-miterlimit:4.0000000;stroke-opacity:1.0000000" />
      <path
         sodipodi:nodetypes="cc"
         id="path2889"
         d="M 11.588885,1.3666059 C 18.922222,9.5405232 11.605526,16.764536 11.605526,16.764536"
         style="fill:none;fill-opacity:0.75000000;fill-rule:evenodd;stroke:#ffffff;stroke-width:0.50000000;stroke-linecap:butt;stroke-linejoin:miter;stroke-miterlimit:4.0000000;stroke-opacity:1.0000000" />
      <path
         sodipodi:nodetypes="cc"
         id="path2891"
         d="M 5.2258471,2.0593951 C 11.080923,9.7405585 5.3432210,16.278941 5.3432210,16.278941"
         style="fill:none;fill-opacity:0.75000000;fill-rule:evenodd;stroke:#ffffff;stroke-width:0.50000000;stroke-linecap:butt;stroke-linejoin:miter;stroke-miterlimit:4.0000000;stroke-opacity:1.0000000" />
      <path
         sodipodi:nodetypes="cc"
         id="path2893"
         d="M 2.7388198,3.7571959 C 6.3686281,9.1817837 2.9127331,14.361601 2.9127331,14.361601"
         style="fill:none;fill-opacity:0.75000000;fill-rule:evenodd;stroke:#ffffff;stroke-width:0.50000000;stroke-linecap:butt;stroke-linejoin:miter;stroke-miterlimit:4.0000000;stroke-opacity:1.0000000" />
    </g>
  </g>
  <g
     style="display:none"
     inkscape:label="zoom"
     id="layer4"
     inkscape:groupmode="layer">
    <text
       transform="scale(1.000000,-1.000000)"
       sodipodi:linespacing="125.00000%"
       id="text2114"
       y="-3.4077148"
       x="3.7485352"
       style="font-size:18.000000;font-style:normal;font-variant:normal;font-weight:bold;font-stretch:normal;fill:#ffffff;fill-opacity:1.0000000;stroke:#ffffff;stroke-width:1.0000000px;stroke-linecap:butt;stroke-linejoin:round;stroke-opacity:1.0000000;font-family:Helvetica;text-anchor:start;writing-mode:lr-tb"
       xml:space="preserve"><tspan
         y="-3.4077148"
         x="3.7485352"
         id="tspan2118"
         sodipodi:role="line">−</tspan></text>
  </g>
  <g
     style="display:none"
     inkscape:label="overlay"
     id="layer2"
     inkscape:groupmode="layer">
    <path
       sodipodi:nodetypes="csccsssscccssscccssssccscc"
       id="text2082"
       d="M 2.9678210,9.0332227 C 2.9678314,9.5015070 3.1752531,9.8938504 3.5900866,10.210254 C 3.6463464,10.254553 3.9451742,10.453889 4.4865710,10.808262 L 8.1568835,13.247754 C 8.2693886,13.323691 8.4240759,13.393300 8.6209460,13.456582 C 8.8107943,13.519862 9.0041535,13.551503 9.2010240,13.551504 C 9.5736843,13.551503 9.8936056,13.431269 10.160789,13.190801 C 10.427980,12.950332 10.561574,12.659238 10.561572,12.317520 C 10.561574,11.861896 10.322511,11.488536 9.8443836,11.197442 L 8.5998522,10.428575 L 14.548408,10.428575 C 15.026535,10.428577 15.406221,10.298849 15.687470,10.039395 C 15.968721,9.7799443 16.109345,9.4318977 16.109345,8.9952540 C 16.109345,8.5396330 15.961690,8.1915865 15.666377,7.9511133 C 15.364034,7.7106494 14.980831,7.5904152 14.516767,7.5904102 L 8.6314928,7.5904102 L 9.9920390,6.7076368 C 10.160793,6.5937365 10.290871,6.4481897 10.382274,6.2709962 C 10.466652,6.0874870 10.508840,5.8913153 10.508837,5.6824805 C 10.508840,5.3281127 10.378761,5.0338552 10.118602,4.7997070 C 9.8584498,4.5655745 9.5279814,4.4485043 9.1271961,4.4484962 C 8.7615757,4.4485043 8.4029823,4.5624104 8.0514147,4.7902149 L 3.9697741,7.5239649 C 3.6393151,7.7454540 3.4002529,7.9542820 3.2525866,8.1504493 C 3.0627532,8.3972503 2.9678314,8.6756875 2.9678210,8.9857618 L 2.9678210,9.0332227"
       style="font-size:12.000000;font-style:normal;font-variant:normal;font-weight:normal;font-stretch:normal;fill:#ffffff;fill-opacity:1.0000000;stroke:none;stroke-width:1.0000000px;stroke-linecap:butt;stroke-linejoin:miter;stroke-opacity:1.0000000;font-family:Verdana;text-anchor:start;writing-mode:lr-tb" />
  </g>
  <g
     style="display:none"
     inkscape:label="pan triangle"
     id="layer3"
     inkscape:groupmode="layer">
    <path
       transform="matrix(0.000000,-1.331000,1.331000,0.000000,2.038879,16.92102)"
       d="M 9.3471551,9.5937489 L 5.5311469,7.3905753 L 1.7151384,5.1874015 L 5.5311469,2.9842283 L 9.3471555,0.78105489 L 9.3471553,5.1874018 L 9.3471551,9.5937489 z "
       inkscape:randomized="0.0000000"
       inkscape:rounded="0.0000000"
       inkscape:flatsided="false"
       sodipodi:arg2="2.0943951"
       sodipodi:arg1="1.0471976"
       sodipodi:r2="2.5440056"
       sodipodi:r1="5.0880113"
       sodipodi:cy="5.1874018"
       sodipodi:cx="6.8031497"
       sodipodi:sides="3"
       id="path2107"
       style="fill:#ffffff;fill-opacity:1.0000000;stroke:none;stroke-width:39.984146;stroke-linejoin:round;stroke-miterlimit:4.0000000;stroke-opacity:1.0000000"
       sodipodi:type="star" />
  </g>
</svg>
