<?xml version="1.0" encoding="UTF-8" standalone="no"?>
<!-- Created with Inkscape (http://www.inkscape.org/) -->
<svg
   xmlns:dc="http://purl.org/dc/elements/1.1/"
   xmlns:cc="http://web.resource.org/cc/"
   xmlns:rdf="http://www.w3.org/1999/02/22-rdf-syntax-ns#"
   xmlns:svg="http://www.w3.org/2000/svg"
   xmlns="http://www.w3.org/2000/svg"
   xmlns:sodipodi="http://inkscape.sourceforge.net/DTD/sodipodi-0.dtd"
   xmlns:inkscape="http://www.inkscape.org/namespaces/inkscape"
   width="18.000000px"
   height="18.000000px"
   id="svg2"
   sodipodi:version="0.32"
   inkscape:version="0.43"
   sodipodi:docbase="/home/sderle/projects/openlayers/layerswitcher/art"
   sodipodi:docname="layer-switcher-maximize.svg"
   inkscape:export-filename="/Users/phil/Documents/work/metacarta/2svn.openlayers.net/follower/code/b-edits-1/openlayers/assets/ui_elements/zoom-minus-mini.png"
   inkscape:export-xdpi="90.000000"
   inkscape:export-ydpi="90.000000">
  <defs
     id="defs4" />
  <sodipodi:namedview
     id="base"
     pagecolor="#ffffff"
     bordercolor="#666666"
     borderopacity="1.0"
     inkscape:pageopacity="0.0"
     inkscape:pageshadow="2"
     inkscape:zoom="16"
     inkscape:cx="9"
     inkscape:cy="9"
     inkscape:document-units="px"
     inkscape:current-layer="layer4"
     inkscape:window-width="1226"
     inkscape:window-height="800"
     inkscape:window-x="42"
     inkscape:window-y="25" />
  <metadata
     id="metadata7">
    <rdf:RDF>
      <cc:Work
         rdf:about="">
        <dc:format>image/svg+xml</dc:format>
        <dc:type
           rdf:resource="http://purl.org/dc/dcmitype/StillImage" />
      </cc:Work>
    </rdf:RDF>
  </metadata>
  <g
     inkscape:label="background"
     inkscape:groupmode="layer"
     id="layer1">
    <g
       id="g2110"
       transform="matrix(-7.849624e-17,1,-1,-7.849624e-17,18,0)">
      <path
         transform="matrix(0,-1.00316,1.00316,0,-2.844e-2,18.02844)"
         d="M 17.971654 9 A 8.9716539 8.9716539 0 1 1  0.028346062,9 A 8.9716539 8.9716539 0 1 1  17.971654 9 z"
         sodipodi:ry="8.9716539"
         sodipodi:rx="8.9716539"
         sodipodi:cy="9"
         sodipodi:cx="9"
         id="path2059"
         style="fill:#00008b;fill-opacity:1;stroke:none;stroke-width:39.98414612;stroke-linejoin:round;stroke-miterlimit:4;stroke-dasharray:none;stroke-opacity:1"
         sodipodi:type="arc" />
      <rect
         transform="matrix(0,-1,1,0,0,0)"
         y="4.3599998e-06"
         x="-9.0000048"
         height="18"
         width="9"
         id="rect2061"
         style="fill:#00008b;fill-opacity:1;stroke:none;stroke-width:39.98414612;stroke-linejoin:round;stroke-miterlimit:4;stroke-dasharray:none;stroke-opacity:1" />
    </g>
  </g>
  <g
     inkscape:groupmode="layer"
     id="layer4"
     inkscape:label="zoom"
     style="display:inline">
    <text
       xml:space="preserve"
       style="font-size:18px;font-style:normal;font-variant:normal;font-weight:bold;font-stretch:normal;text-align:start;line-height:125%;writing-mode:lr-tb;text-anchor:start;fill:#ffffff;fill-opacity:1;stroke:#ffffff;stroke-width:1px;stroke-linecap:butt;stroke-linejoin:round;stroke-opacity:1;display:inline;font-family:Helvetica"
       x="1.5214844"
       y="-3.2949219"
       id="text2114"
       sodipodi:linespacing="125%"
       transform="scale(1,-1)"><tspan
         sodipodi:role="line"
         id="tspan2118"
         x="1.5214844"
         y="-3.2949219">+</tspan></text>
  </g>
  <g
     inkscape:groupmode="layer"
     id="layer2"
     inkscape:label="overlay"
     style="display:none">
    <path
       style="font-size:12.000000px;font-style:normal;font-variant:normal;font-weight:normal;font-stretch:normal;text-align:start;line-height:125.00000%;writing-mode:lr-tb;text-anchor:start;fill:#ffffff;fill-opacity:1.0000000;stroke:none;stroke-width:1.0000000px;stroke-linecap:butt;stroke-linejoin:miter;stroke-opacity:1.0000000;font-family:Verdana"
       d="M 2.9678210,9.0332227 C 2.9678314,9.5015070 3.1752531,9.8938504 3.5900866,10.210254 C 3.6463464,10.254553 3.9451742,10.453889 4.4865710,10.808262 L 8.1568835,13.247754 C 8.2693886,13.323691 8.4240759,13.393300 8.6209460,13.456582 C 8.8107943,13.519862 9.0041535,13.551503 9.2010240,13.551504 C 9.5736843,13.551503 9.8936056,13.431269 10.160789,13.190801 C 10.427980,12.950332 10.561574,12.659238 10.561572,12.317520 C 10.561574,11.861896 10.322511,11.488536 9.8443836,11.197442 L 8.5998522,10.428575 L 14.548408,10.428575 C 15.026535,10.428577 15.406221,10.298849 15.687470,10.039395 C 15.968721,9.7799443 16.109345,9.4318977 16.109345,8.9952540 C 16.109345,8.5396330 15.961690,8.1915865 15.666377,7.9511133 C 15.364034,7.7106494 14.980831,7.5904152 14.516767,7.5904102 L 8.6314928,7.5904102 L 9.9920390,6.7076368 C 10.160793,6.5937365 10.290871,6.4481897 10.382274,6.2709962 C 10.466652,6.0874870 10.508840,5.8913153 10.508837,5.6824805 C 10.508840,5.3281127 10.378761,5.0338552 10.118602,4.7997070 C 9.8584498,4.5655745 9.5279814,4.4485043 9.1271961,4.4484962 C 8.7615757,4.4485043 8.4029823,4.5624104 8.0514147,4.7902149 L 3.9697741,7.5239649 C 3.6393151,7.7454540 3.4002529,7.9542820 3.2525866,8.1504493 C 3.0627532,8.3972503 2.9678314,8.6756875 2.9678210,8.9857618 L 2.9678210,9.0332227"
       id="text2082"
       sodipodi:nodetypes="csccsssscccssscccssssccscc" />
  </g>
  <g
     inkscape:groupmode="layer"
     id="layer3"
     inkscape:label="pan triangle"
     style="display:none">
    <path
       sodipodi:type="star"
       style="fill:#ffffff;fill-opacity:1.0000000;stroke:none;stroke-width:39.984146;stroke-linejoin:round;stroke-miterlimit:4.0000000;stroke-dasharray:none;stroke-opacity:1.0000000"
       id="path2107"
       sodipodi:sides="3"
       sodipodi:cx="6.8031497"
       sodipodi:cy="5.1874018"
       sodipodi:r1="5.0880113"
       sodipodi:r2="2.5440056"
       sodipodi:arg1="1.0471976"
       sodipodi:arg2="2.0943951"
       inkscape:flatsided="false"
       inkscape:rounded="0.0000000"
       inkscape:randomized="0.0000000"
       d="M 9.3471551,9.5937489 L 5.5311469,7.3905753 L 1.7151384,5.1874015 L 5.5311469,2.9842283 L 9.3471555,0.78105489 L 9.3471553,5.1874018 L 9.3471551,9.5937489 z "
       transform="matrix(0.000000,-1.331000,1.331000,0.000000,2.038879,16.92102)" />
  </g>
</svg>
