<?xml version="1.0" encoding="utf-8"?>
<svg width="154.152" height="155.487" xmlns="http://www.w3.org/2000/svg">
 <g>
  <title>OpenLayers 3 Logo</title>
  <path fill="#015965" d="m56.62,34.146c11.25,-9.369 29.662,-9.371 40.914,0l48.18201,40.123c11.248,9.37 11.25,24.69701 -0.002,34.068l-48.18001,40.122c-11.254,9.37199 -29.666,9.369 -40.914,0l-48.182,-40.122c-11.25,-9.369 -11.25,-24.698 -0.002,-34.068l48.184,-40.123z"/>
  <path fill="#E5E5E5" d="m56.62,21.067c11.25,-9.369 29.662,-9.371 40.914,0l48.18201,40.123c11.248,9.371 11.25,24.699 -0.002,34.069l-48.18001,40.12199c-11.254,9.37201 -29.666,9.36899 -40.914,0l-48.182,-40.12199c-11.25,-9.37 -11.25,-24.69801 -0.002,-34.069l48.184,-40.123z"/>
  <path fill="#35BBCE" d="m56.62,7.027c11.25,-9.369 29.662,-9.371 40.914,0l48.18201,40.123c11.248,9.371 11.25,24.699 -0.002,34.069l-48.18001,40.122c-11.254,9.37199 -29.666,9.369 -40.914,0l-48.182,-40.122c-11.25,-9.37 -11.25,-24.698 -0.002,-34.069l48.184,-40.123z"/>
  <path opacity="0.15" fill="#FFFFFF" d="m147.10001,48.398c-0.44299,-0.426 -0.899,-0.845 -1.38498,-1.249l-48.18103,-40.122c-11.252,-9.371 -29.66399,-9.369 -40.914,0l-48.184,40.122c-11.248,9.372 -11.248,24.7 0.002,34.07l5.185,4.317c13.557,-16.26801 59.276,-61.35 133.47701,-37.138z"/>
 </g>
</svg>
