<?xml version="1.0" encoding="utf-8"?>
<!-- Generator: Adobe Illustrator 12.0.0, SVG Export Plug-In . SVG Version: 6.00 Build 51448)  -->
<!DOCTYPE svg PUBLIC "-//W3C//DTD SVG 1.1//EN" "http://www.w3.org/Graphics/SVG/1.1/DTD/svg11.dtd" [
	<!ENTITY ns_svg "http://www.w3.org/2000/svg">
	<!ENTITY ns_xlink "http://www.w3.org/1999/xlink">
]>
<svg  version="1.1" id="OSGeo_x5F_logo" xmlns="&ns_svg;" xmlns:xlink="&ns_xlink;" width="296.647" height="125.463"
	 viewBox="0 0 296.647 125.463" overflow="visible" enable-background="new 0 0 296.647 125.463" xml:space="preserve">
<g id="Text">
	<g id="Associate" display="none">
		<path display="inline" fill="#0054A4" d="M125.807,106.395c-0.74-0.246-1.523-0.357-2.105-0.357c-2.129,0-3.024,1.141-3.024,2.26
			c0,2.531,4.503,2.6,4.503,6.207c0,2.867-2.532,5.084-6.116,5.084c-0.874,0-1.859-0.068-2.599-0.291l0.449-2.309
			c0.649,0.271,1.546,0.473,2.33,0.473c2.15,0,3.337-1.01,3.337-2.555c0-2.42-4.457-2.441-4.457-6.049
			c0-2.619,1.97-4.838,5.734-4.838c0.807,0,1.523,0.045,2.375,0.201L125.807,106.395z"/>
		<path display="inline" fill="#0054A4" d="M130.755,119.545c-0.492,0-0.917-0.047-1.411-0.113l-1.008,5.398h-2.352l2.15-11.268
			c0.381-2.062,0.74-3.896,0.963-5.33h2.33c-0.179,0.916-0.47,1.924-1.143,4.029l0.045,0.025c1.121-2.443,2.801-4.303,4.929-4.303
			c1.658,0,2.553,1.074,2.553,3.451C137.812,115.58,135.64,119.545,130.755,119.545z M134.385,110.045
			c-1.882,0-4.078,4.076-4.503,6.586l-0.134,0.785c0.402,0.156,1.007,0.244,1.434,0.244c2.957,0,4.211-3.225,4.211-5.799
			C135.393,110.582,135.012,110.045,134.385,110.045z"/>
		<path display="inline" fill="#0054A4" d="M143.366,119.588c-2.935,0-4.211-1.455-4.211-3.986c0-4.549,2.957-7.594,6.564-7.594
			c3.047,0,4.256,1.68,4.256,4.055C149.974,116.631,146.771,119.588,143.366,119.588z M145.359,110.045
			c-2.285,0-3.741,2.621-3.741,5.174c0,1.459,0.583,2.309,2.084,2.309c2.105,0,3.786-2.285,3.786-5.197
			C147.488,110.854,146.838,110.045,145.359,110.045z"/>
		<path display="inline" fill="#0054A4" d="M160.412,119.365h-2.354l1.367-7.057c0.314-1.592,0.021-2.264-0.852-2.264
			c-1.791,0-3.986,3.986-4.48,6.676l-0.492,2.645h-2.352l1.121-5.824c0.357-1.859,0.717-3.811,0.961-5.309h2.33
			c-0.135,0.693-0.424,1.881-1.141,3.965l0.043,0.021c1.055-2.195,2.711-4.234,4.951-4.234c2.105,0,2.777,1.5,2.352,3.764
			L160.412,119.365z"/>
		<path display="inline" fill="#0054A4" d="M170.646,110.066c-0.492-0.178-1.053-0.246-1.59-0.246c-1.322,0-1.994,0.582-1.994,1.434
			c0,1.592,3.158,2.152,3.158,4.615c0,1.859-1.635,3.719-4.928,3.719c-0.738,0-1.344-0.068-1.904-0.18l0.402-2.059
			c0.562,0.178,1.166,0.289,1.771,0.289c1.322,0,2.195-0.514,2.195-1.523c0-1.633-3.137-1.947-3.137-4.615
			c0-1.947,1.547-3.492,4.57-3.492c0.738,0,1.344,0.066,1.904,0.178L170.646,110.066z"/>
		<path display="inline" fill="#0054A4" d="M176.56,119.588c-2.936,0-4.213-1.455-4.213-3.986c0-4.549,2.957-7.594,6.564-7.594
			c3.047,0,4.256,1.68,4.256,4.055C183.167,116.631,179.964,119.588,176.56,119.588z M178.552,110.045
			c-2.285,0-3.74,2.621-3.74,5.174c0,1.459,0.582,2.309,2.084,2.309c2.105,0,3.785-2.285,3.785-5.197
			C180.681,110.854,180.031,110.045,178.552,110.045z"/>
		<path display="inline" fill="#0054A4" d="M191.857,110.314c-1.859-0.537-3.943,3.182-4.592,6.586l-0.471,2.465h-2.352l1.121-5.824
			c0.289-1.568,0.672-3.652,0.961-5.309h2.287c-0.158,0.916-0.449,2.016-1.055,3.762l0.045,0.021
			c1.232-2.553,2.51-4.344,4.549-4.008L191.857,110.314z"/>
		<path display="inline" fill="#0054A4" d="M199.291,114.549c-0.895,0-1.521-0.717-1.5-1.547c0.045-0.963,0.852-1.701,1.725-1.701
			c0.896,0,1.523,0.738,1.502,1.545C200.994,113.832,200.189,114.549,199.291,114.549z"/>
		<path display="inline" fill="#0054A4" d="M216.74,119.365l-0.492-3.338h-6.004l-1.77,3.338h-2.531l8.199-15.123h2.666
			l2.508,15.123H216.74z M215.195,109.33c-0.135-0.762-0.225-1.547-0.27-2.332h-0.021c-0.314,0.762-0.695,1.592-1.143,2.396
			l-2.531,4.684h4.748L215.195,109.33z"/>
		<path display="inline" fill="#0054A4" d="M228.007,110.066c-0.494-0.178-1.053-0.246-1.592-0.246c-1.32,0-1.992,0.582-1.992,1.434
			c0,1.592,3.158,2.152,3.158,4.615c0,1.859-1.637,3.719-4.93,3.719c-0.738,0-1.344-0.068-1.902-0.18l0.402-2.059
			c0.561,0.178,1.164,0.289,1.77,0.289c1.322,0,2.195-0.514,2.195-1.523c0-1.633-3.137-1.947-3.137-4.615
			c0-1.947,1.547-3.492,4.57-3.492c0.74,0,1.344,0.066,1.904,0.178L228.007,110.066z"/>
		<path display="inline" fill="#0054A4" d="M236.496,110.066c-0.494-0.178-1.053-0.246-1.592-0.246c-1.32,0-1.992,0.582-1.992,1.434
			c0,1.592,3.158,2.152,3.158,4.615c0,1.859-1.635,3.719-4.928,3.719c-0.74,0-1.346-0.068-1.904-0.18l0.402-2.059
			c0.561,0.178,1.166,0.289,1.77,0.289c1.322,0,2.197-0.514,2.197-1.523c0-1.633-3.137-1.947-3.137-4.615
			c0-1.947,1.545-3.492,4.57-3.492c0.738,0,1.342,0.066,1.902,0.178L236.496,110.066z"/>
		<path display="inline" fill="#0054A4" d="M242.408,119.588c-2.934,0-4.211-1.455-4.211-3.986c0-4.549,2.957-7.594,6.564-7.594
			c3.045,0,4.256,1.68,4.256,4.055C249.017,116.631,245.814,119.588,242.408,119.588z M244.402,110.045
			c-2.285,0-3.74,2.621-3.74,5.174c0,1.459,0.582,2.309,2.082,2.309c2.105,0,3.787-2.285,3.787-5.197
			C246.531,110.854,245.88,110.045,244.402,110.045z"/>
		<path display="inline" fill="#0054A4" d="M258.535,110.428c-0.537-0.248-1.164-0.404-1.904-0.404c-2.598,0-3.785,2.91-3.785,5.242
			c0,1.143,0.402,2.195,2.15,2.195c0.807,0,1.658-0.18,2.33-0.494l-0.18,2.105c-0.783,0.27-1.77,0.494-2.822,0.494
			c-2.936,0-3.988-1.545-3.988-3.764c0-4.256,2.443-7.773,6.453-7.773c0.873,0,1.59,0.113,2.307,0.314L258.535,110.428z"/>
		<path display="inline" fill="#0054A4" d="M261.781,119.365h-2.352l2.127-11.133h2.354L261.781,119.365z M263.238,106.574
			c-0.852,0-1.457-0.672-1.434-1.434c0.021-0.898,0.783-1.57,1.635-1.57c0.83,0,1.434,0.65,1.412,1.412
			C264.828,105.902,264.066,106.574,263.238,106.574z"/>
		<path display="inline" fill="#0054A4" d="M273.921,119.365h-2.33c0.203-0.918,0.584-2.24,1.189-4.078l-0.045-0.021
			c-0.854,1.68-2.465,4.346-4.975,4.346c-1.635,0-2.531-1.076-2.531-3.449c0-4.146,2.174-8.111,7.057-8.111
			c1.299,0,2.553,0.113,3.697,0.336C274.884,114.057,274.392,116.609,273.921,119.365z M271.882,109.912
			c-2.979,0-4.232,3.248-4.232,5.824c0,1.277,0.381,1.812,1.008,1.812c1.881,0,4.01-4.1,4.504-6.631l0.154-0.805
			C272.914,110.002,272.443,109.912,271.882,109.912z"/>
		<path display="inline" fill="#0054A4" d="M284.472,110.092h-2.846l-1.029,5.463c-0.291,1.547-0.068,1.973,0.939,1.973
			c0.605,0,1.053-0.066,1.479-0.156l-0.178,1.949c-0.695,0.156-1.523,0.246-2.174,0.246c-2.33,0-2.979-1.098-2.465-3.697
			l1.098-5.777h-2.105l0.381-1.859h2.084l0.672-3.539l2.441-0.516l-0.783,4.055h2.867L284.472,110.092z"/>
		<path display="inline" fill="#0054A4" d="M287.808,114.615c-0.045,0.291-0.09,0.785-0.09,1.121c0,1.523,0.561,1.924,2.24,1.924
			c1.053,0,2.195-0.244,3.182-0.646v1.881c-1.143,0.426-2.51,0.693-3.965,0.693c-2.689,0-3.854-1.188-3.854-3.697
			c0-4.455,2.598-7.883,6.182-7.883c2.555,0,3.43,1.297,3.43,2.621C294.933,113.137,292.4,114.457,287.808,114.615z
			 M291.236,109.799c-1.613,0-2.688,1.455-3.137,3.16c3.047-0.113,4.48-0.74,4.48-2.018
			C292.58,110.203,292.066,109.799,291.236,109.799z"/>
	</g>
	<g id="Supporting" display="none">
		<path display="inline" fill="#0054A4" d="M112.149,106.585c-0.741-0.247-1.527-0.358-2.111-0.358
			c-2.133,0-3.031,1.144-3.031,2.268c0,2.538,4.513,2.604,4.513,6.22c0,2.875-2.538,5.1-6.131,5.1c-0.875,0-1.864-0.068-2.604-0.294
			l0.449-2.312c0.652,0.269,1.55,0.47,2.336,0.47c2.156,0,3.346-1.01,3.346-2.559c0-2.427-4.469-2.448-4.469-6.064
			c0-2.627,1.977-4.85,5.749-4.85c0.808,0,1.527,0.044,2.38,0.201L112.149,106.585z"/>
		<path display="inline" fill="#0054A4" d="M116.885,119.768c-0.494,0-0.92-0.046-1.415-0.112l-1.011,5.412h-2.358l2.156-11.296
			c0.382-2.065,0.742-3.907,0.966-5.345h2.335c-0.18,0.921-0.472,1.932-1.146,4.043l0.045,0.021c1.123-2.448,2.808-4.312,4.94-4.312
			c1.662,0,2.561,1.078,2.561,3.459C123.959,115.792,121.781,119.768,116.885,119.768z M120.523,110.245
			c-1.886,0-4.086,4.088-4.513,6.602l-0.135,0.788c0.404,0.157,1.01,0.247,1.437,0.247c2.963,0,4.221-3.235,4.221-5.817
			C121.534,110.785,121.152,110.245,120.523,110.245z"/>
		<path display="inline" fill="#0054A4" d="M129.302,119.813c-2.942,0-4.222-1.462-4.222-3.999c0-4.559,2.964-7.613,6.58-7.613
			c3.054,0,4.267,1.685,4.267,4.064C135.927,116.847,132.715,119.813,129.302,119.813z M131.3,110.245
			c-2.291,0-3.75,2.627-3.75,5.188c0,1.459,0.583,2.312,2.088,2.312c2.111,0,3.795-2.291,3.795-5.211
			C133.434,111.054,132.782,110.245,131.3,110.245z"/>
		<path display="inline" fill="#0054A4" d="M146.165,119.588h-2.358l1.372-7.074c0.313-1.595,0.022-2.269-0.853-2.269
			c-1.798,0-3.999,3.998-4.493,6.693l-0.494,2.649h-2.358l1.123-5.839c0.359-1.863,0.719-3.817,0.965-5.322h2.336
			c-0.136,0.696-0.427,1.886-1.145,3.975l0.044,0.022c1.057-2.201,2.717-4.244,4.964-4.244c2.111,0,2.785,1.505,2.358,3.773
			L146.165,119.588z"/>
		<path display="inline" fill="#0054A4" d="M156.202,110.269c-0.494-0.179-1.055-0.247-1.595-0.247
			c-1.323,0-1.997,0.584-1.997,1.438c0,1.595,3.165,2.154,3.165,4.624c0,1.864-1.639,3.73-4.939,3.73
			c-0.741,0-1.348-0.068-1.91-0.182l0.405-2.065c0.562,0.18,1.168,0.291,1.773,0.291c1.326,0,2.201-0.517,2.201-1.526
			c0-1.639-3.144-1.954-3.144-4.625c0-1.954,1.549-3.505,4.581-3.505c0.741,0,1.348,0.068,1.909,0.18L156.202,110.269z"/>
		<path display="inline" fill="#0054A4" d="M161.905,119.813c-2.942,0-4.222-1.462-4.222-3.999c0-4.559,2.964-7.613,6.58-7.613
			c3.054,0,4.268,1.685,4.268,4.064C168.531,116.847,165.319,119.813,161.905,119.813z M163.904,110.245
			c-2.29,0-3.751,2.627-3.751,5.188c0,1.459,0.584,2.312,2.089,2.312c2.11,0,3.795-2.291,3.795-5.211
			C166.037,111.054,165.385,110.245,163.904,110.245z"/>
		<path display="inline" fill="#0054A4" d="M177.016,110.516c-1.863-0.54-3.952,3.188-4.604,6.603l-0.471,2.47h-2.357l1.122-5.839
			c0.291-1.572,0.674-3.659,0.965-5.322h2.292c-0.157,0.921-0.45,2.021-1.057,3.771l0.046,0.024c1.234-2.562,2.514-4.357,4.56-4.021
			L177.016,110.516z"/>
		<path display="inline" fill="#0054A4" d="M184.019,114.76c-0.896,0-1.526-0.72-1.503-1.551c0.044-0.965,0.854-1.706,1.729-1.706
			c0.898,0,1.526,0.741,1.505,1.551C185.727,114.04,184.918,114.76,184.019,114.76z"/>
		<path display="inline" fill="#0054A4" d="M200.883,106.585c-0.739-0.247-1.527-0.358-2.111-0.358
			c-2.133,0-3.031,1.144-3.031,2.268c0,2.538,4.515,2.604,4.515,6.22c0,2.875-2.538,5.1-6.132,5.1c-0.875,0-1.863-0.068-2.604-0.294
			l0.449-2.312c0.651,0.269,1.549,0.47,2.334,0.47c2.156,0,3.347-1.01,3.347-2.559c0-2.427-4.469-2.448-4.469-6.064
			c0-2.627,1.978-4.85,5.749-4.85c0.809,0,1.526,0.044,2.38,0.201L200.883,106.585z"/>
		<path display="inline" fill="#0054A4" d="M212.064,114.266c-0.358,1.886-0.718,3.863-0.986,5.322h-2.314
			c0.136-0.695,0.427-1.886,1.124-3.975l-0.046-0.022c-1.032,2.201-2.695,4.244-4.939,4.244c-2.111,0-2.785-1.505-2.358-3.773
			l1.459-7.635h2.337l-1.348,7.074c-0.315,1.593-0.024,2.267,0.854,2.267c1.796,0,3.996-3.996,4.49-6.691l0.495-2.649h2.357
			L212.064,114.266z"/>
		<path display="inline" fill="#0054A4" d="M217.993,119.768c-0.494,0-0.921-0.046-1.416-0.112l-1.01,5.412h-2.358l2.156-11.296
			c0.381-2.065,0.74-3.907,0.965-5.345h2.337c-0.182,0.921-0.473,1.932-1.146,4.043l0.046,0.021
			c1.122-2.448,2.807-4.312,4.939-4.312c1.662,0,2.56,1.078,2.56,3.459C225.065,115.792,222.888,119.768,217.993,119.768z
			 M221.63,110.245c-1.888,0-4.089,4.088-4.515,6.602l-0.134,0.788c0.402,0.157,1.011,0.247,1.438,0.247
			c2.964,0,4.222-3.235,4.222-5.817C222.641,110.785,222.258,110.245,221.63,110.245z"/>
		<path display="inline" fill="#0054A4" d="M229.893,119.768c-0.494,0-0.921-0.046-1.415-0.112l-1.011,5.412h-2.358l2.157-11.296
			c0.38-2.065,0.739-3.907,0.964-5.345h2.337c-0.182,0.921-0.473,1.932-1.146,4.043l0.046,0.021
			c1.122-2.448,2.807-4.312,4.939-4.312c1.663,0,2.56,1.078,2.56,3.459C236.965,115.792,234.789,119.768,229.893,119.768z
			 M233.531,110.245c-1.888,0-4.088,4.088-4.515,6.602l-0.134,0.788c0.402,0.157,1.011,0.247,1.438,0.247
			c2.964,0,4.222-3.235,4.222-5.817C234.542,110.785,234.159,110.245,233.531,110.245z"/>
		<path display="inline" fill="#0054A4" d="M242.308,119.813c-2.942,0-4.223-1.462-4.223-3.999c0-4.559,2.965-7.613,6.58-7.613
			c3.054,0,4.269,1.685,4.269,4.064C248.934,116.847,245.722,119.813,242.308,119.813z M244.307,110.245
			c-2.29,0-3.752,2.627-3.752,5.188c0,1.459,0.584,2.312,2.09,2.312c2.11,0,3.795-2.291,3.795-5.211
			C246.44,111.054,245.789,110.245,244.307,110.245z"/>
		<path display="inline" fill="#0054A4" d="M257.419,110.516c-1.863-0.54-3.953,3.188-4.603,6.603l-0.473,2.47h-2.358l1.125-5.839
			c0.291-1.572,0.671-3.659,0.965-5.322h2.29c-0.157,0.921-0.448,2.021-1.055,3.771l0.044,0.024
			c1.236-2.562,2.516-4.357,4.559-4.021L257.419,110.516z"/>
		<path display="inline" fill="#0054A4" d="M265.433,110.291h-2.853l-1.033,5.479c-0.293,1.549-0.067,1.976,0.943,1.976
			c0.605,0,1.055-0.068,1.481-0.157l-0.18,1.953c-0.696,0.157-1.527,0.247-2.177,0.247c-2.336,0-2.988-1.101-2.472-3.706
			l1.101-5.792h-2.111l0.383-1.864h2.089l0.674-3.548l2.445-0.517l-0.785,4.064h2.875L265.433,110.291z"/>
		<path display="inline" fill="#0054A4" d="M268.351,119.588h-2.358l2.133-11.161h2.358L268.351,119.588z M269.81,106.765
			c-0.853,0-1.459-0.674-1.437-1.438c0.021-0.897,0.785-1.571,1.639-1.571c0.831,0,1.437,0.65,1.415,1.414
			C271.405,106.091,270.642,106.765,269.81,106.765z"/>
		<path display="inline" fill="#0054A4" d="M280.746,119.588h-2.357l1.369-7.074c0.315-1.595,0.021-2.269-0.854-2.269
			c-1.796,0-3.996,3.998-4.491,6.693l-0.494,2.649h-2.357l1.124-5.839c0.358-1.863,0.718-3.817,0.965-5.322h2.336
			c-0.136,0.696-0.427,1.886-1.146,3.975l0.046,0.022c1.055-2.201,2.717-4.244,4.962-4.244c2.111,0,2.784,1.505,2.358,3.773
			L280.746,119.588z"/>
		<path display="inline" fill="#0054A4" d="M292.443,120.463c-0.538,2.853-2.336,4.806-6.647,4.806
			c-1.258,0-2.269-0.179-3.122-0.448l0.562-2.269c0.875,0.427,1.999,0.652,3.01,0.652c2.223,0,3.524-0.854,3.975-3.146
			c0.291-1.527,0.561-2.381,1.256-4.491h-0.044c-0.809,1.595-2.426,4.268-4.939,4.268c-1.641,0-2.537-1.078-2.537-3.458
			c0-4.154,2.2-8.13,7.072-8.13c1.304,0,2.56,0.112,3.706,0.337L292.443,120.463z M290.624,110.111
			c-2.986,0-4.244,3.255-4.244,5.839c0,1.279,0.383,1.817,1.011,1.817c1.886,0,4.021-4.108,4.515-6.646l0.155-0.81
			C291.658,110.201,291.185,110.111,290.624,110.111z"/>
	</g>
	<g id="Sustaining" display="none">
		<path display="inline" fill="#0054A4" d="M114.405,106.354c-0.741-0.246-1.525-0.357-2.108-0.357
			c-2.131,0-3.028,1.143-3.028,2.265c0,2.535,4.507,2.601,4.507,6.212c0,2.871-2.535,5.093-6.122,5.093
			c-0.875,0-1.861-0.068-2.602-0.293l0.448-2.31c0.651,0.27,1.549,0.47,2.333,0.47c2.153,0,3.342-1.009,3.342-2.556
			c0-2.423-4.462-2.445-4.462-6.057c0-2.624,1.973-4.844,5.741-4.844c0.807,0,1.525,0.044,2.377,0.201L114.405,106.354z"/>
		<path display="inline" fill="#0054A4" d="M119.359,119.521c-0.493,0-0.918-0.046-1.412-0.111l-1.01,5.405h-2.355l2.153-11.282
			c0.381-2.062,0.739-3.902,0.964-5.338h2.333c-0.179,0.92-0.471,1.93-1.144,4.038l0.045,0.021c1.122-2.445,2.804-4.307,4.934-4.307
			c1.661,0,2.557,1.077,2.557,3.454C126.424,115.551,124.25,119.521,119.359,119.521z M122.993,110.01
			c-1.885,0-4.083,4.084-4.509,6.594l-0.133,0.787c0.403,0.157,1.008,0.246,1.436,0.246c2.96,0,4.217-3.23,4.217-5.809
			C124.003,110.55,123.621,110.01,122.993,110.01z"/>
		<path display="inline" fill="#0054A4" d="M131.984,119.566c-2.938,0-4.216-1.459-4.216-3.994c0-4.553,2.96-7.603,6.572-7.603
			c3.05,0,4.262,1.682,4.262,4.06C138.602,116.604,135.395,119.566,131.984,119.566z M133.981,110.01
			c-2.288,0-3.747,2.624-3.747,5.183c0,1.457,0.583,2.31,2.086,2.31c2.108,0,3.791-2.288,3.791-5.204
			C136.111,110.818,135.46,110.01,133.981,110.01z"/>
		<path display="inline" fill="#0054A4" d="M149.05,119.341h-2.356l1.37-7.065c0.313-1.593,0.022-2.266-0.852-2.266
			c-1.795,0-3.994,3.994-4.487,6.686l-0.492,2.646h-2.355l1.121-5.831c0.358-1.861,0.719-3.812,0.964-5.315h2.333
			c-0.135,0.695-0.426,1.884-1.143,3.97l0.043,0.022c1.055-2.198,2.714-4.239,4.958-4.239c2.107,0,2.781,1.504,2.355,3.77
			L149.05,119.341z"/>
		<path display="inline" fill="#0054A4" d="M159.298,110.034c-0.494-0.18-1.055-0.247-1.592-0.247c-1.324,0-1.998,0.583-1.998,1.436
			c0,1.593,3.164,2.152,3.164,4.619c0,1.861-1.639,3.725-4.936,3.725c-0.738,0-1.346-0.068-1.904-0.182l0.4-2.062
			c0.562,0.18,1.168,0.291,1.773,0.291c1.324,0,2.197-0.516,2.197-1.525c0-1.636-3.139-1.951-3.139-4.618
			c0-1.951,1.549-3.5,4.574-3.5c0.74,0,1.346,0.067,1.906,0.179L159.298,110.034z"/>
		<path display="inline" fill="#0054A4" d="M165.216,119.566c-2.938,0-4.215-1.459-4.215-3.994c0-4.553,2.959-7.603,6.57-7.603
			c3.051,0,4.264,1.682,4.264,4.06C171.835,116.604,168.628,119.566,165.216,119.566z M167.214,110.01
			c-2.287,0-3.746,2.624-3.746,5.183c0,1.457,0.582,2.31,2.086,2.31c2.107,0,3.791-2.288,3.791-5.204
			C169.345,110.818,168.693,110.01,167.214,110.01z"/>
		<path display="inline" fill="#0054A4" d="M180.535,110.281c-1.861-0.54-3.947,3.183-4.6,6.594l-0.469,2.466h-2.355l1.121-5.831
			c0.291-1.57,0.672-3.655,0.963-5.315h2.291c-0.158,0.92-0.451,2.019-1.057,3.767l0.047,0.024c1.232-2.559,2.51-4.353,4.553-4.016
			L180.535,110.281z"/>
		<path display="inline" fill="#0054A4" d="M187.976,114.52c-0.895,0-1.523-0.719-1.5-1.549c0.043-0.964,0.852-1.704,1.725-1.704
			c0.898,0,1.525,0.74,1.504,1.549C189.683,113.801,188.875,114.52,187.976,114.52z"/>
		<path display="inline" fill="#0054A4" d="M205.267,106.354c-0.738-0.246-1.525-0.357-2.107-0.357
			c-2.131,0-3.029,1.143-3.029,2.265c0,2.535,4.51,2.601,4.51,6.212c0,2.871-2.535,5.093-6.123,5.093
			c-0.875,0-1.863-0.068-2.602-0.293l0.449-2.31c0.65,0.27,1.547,0.47,2.33,0.47c2.154,0,3.344-1.009,3.344-2.556
			c0-2.423-4.465-2.445-4.465-6.057c0-2.624,1.977-4.844,5.742-4.844c0.809,0,1.525,0.044,2.377,0.201L205.267,106.354z"/>
		<path display="inline" fill="#0054A4" d="M216.66,114.025c-0.359,1.884-0.717,3.858-0.986,5.315h-2.311
			c0.135-0.694,0.426-1.883,1.121-3.97l-0.045-0.021c-1.031,2.198-2.691,4.238-4.934,4.238c-2.107,0-2.781-1.503-2.355-3.769
			l1.457-7.625h2.334l-1.346,7.065c-0.314,1.591-0.023,2.264,0.852,2.264c1.795,0,3.992-3.991,4.486-6.684l0.494-2.646h2.354
			L216.66,114.025z"/>
		<path display="inline" fill="#0054A4" d="M225.898,110.034c-0.494-0.18-1.055-0.247-1.592-0.247c-1.324,0-1.998,0.583-1.998,1.436
			c0,1.593,3.164,2.152,3.164,4.619c0,1.861-1.639,3.725-4.936,3.725c-0.738,0-1.346-0.068-1.904-0.182l0.402-2.062
			c0.561,0.18,1.166,0.291,1.771,0.291c1.324,0,2.197-0.516,2.197-1.525c0-1.636-3.139-1.951-3.139-4.618
			c0-1.951,1.549-3.5,4.574-3.5c0.74,0,1.346,0.067,1.908,0.179L225.898,110.034z"/>
		<path display="inline" fill="#0054A4" d="M234.98,110.056h-2.848l-1.031,5.473c-0.293,1.548-0.068,1.974,0.941,1.974
			c0.605,0,1.053-0.068,1.479-0.157l-0.18,1.951c-0.693,0.157-1.523,0.246-2.174,0.246c-2.332,0-2.984-1.099-2.469-3.7l1.1-5.786
			h-2.107l0.381-1.861h2.088l0.672-3.544l2.443-0.516l-0.785,4.06h2.871L234.98,110.056z"/>
		<path display="inline" fill="#0054A4" d="M244.49,119.341h-2.334c0.203-0.919,0.584-2.243,1.189-4.081l-0.045-0.023
			c-0.852,1.682-2.467,4.352-4.979,4.352c-1.637,0-2.535-1.077-2.535-3.454c0-4.148,2.176-8.118,7.066-8.118
			c1.299,0,2.555,0.111,3.701,0.336C245.453,114.025,244.96,116.582,244.49,119.341z M242.449,109.877
			c-2.982,0-4.238,3.251-4.238,5.831c0,1.278,0.379,1.815,1.008,1.815c1.885,0,4.014-4.103,4.508-6.638l0.158-0.808
			C243.48,109.967,243.009,109.877,242.449,109.877z"/>
		<path display="inline" fill="#0054A4" d="M250.228,119.341h-2.355l2.131-11.146h2.355L250.228,119.341z M251.685,106.534
			c-0.852,0-1.457-0.673-1.436-1.436c0.025-0.896,0.787-1.568,1.639-1.568c0.83,0,1.436,0.648,1.414,1.411
			C253.279,105.861,252.515,106.534,251.685,106.534z"/>
		<path display="inline" fill="#0054A4" d="M262.833,119.341h-2.355l1.367-7.065c0.314-1.593,0.021-2.266-0.852-2.266
			c-1.795,0-3.992,3.994-4.486,6.686l-0.494,2.646h-2.354l1.121-5.831c0.359-1.861,0.717-3.812,0.965-5.315h2.332
			c-0.135,0.695-0.426,1.884-1.145,3.97l0.047,0.022c1.053-2.198,2.713-4.239,4.955-4.239c2.107,0,2.781,1.504,2.355,3.77
			L262.833,119.341z"/>
		<path display="inline" fill="#0054A4" d="M268.593,119.341h-2.354l2.129-11.146h2.355L268.593,119.341z M270.052,106.534
			c-0.854,0-1.459-0.673-1.436-1.436c0.023-0.896,0.785-1.568,1.639-1.568c0.83,0,1.434,0.648,1.412,1.411
			C271.644,105.861,270.882,106.534,270.052,106.534z"/>
		<path display="inline" fill="#0054A4" d="M281.199,119.341h-2.355l1.367-7.065c0.314-1.593,0.021-2.266-0.852-2.266
			c-1.795,0-3.992,3.994-4.486,6.686l-0.492,2.646h-2.355l1.123-5.831c0.357-1.861,0.717-3.812,0.963-5.315h2.334
			c-0.137,0.695-0.428,1.884-1.146,3.97l0.047,0.022c1.053-2.198,2.713-4.239,4.955-4.239c2.107,0,2.781,1.504,2.355,3.77
			L281.199,119.341z"/>
		<path display="inline" fill="#0054A4" d="M293.105,120.215c-0.537,2.85-2.332,4.801-6.639,4.801c-1.256,0-2.266-0.18-3.117-0.448
			l0.561-2.266c0.873,0.426,1.996,0.651,3.006,0.651c2.221,0,3.52-0.853,3.971-3.142c0.291-1.525,0.559-2.378,1.254-4.485h-0.045
			c-0.807,1.592-2.422,4.262-4.932,4.262c-1.639,0-2.535-1.077-2.535-3.454c0-4.148,2.197-8.118,7.064-8.118
			c1.301,0,2.555,0.111,3.699,0.336L293.105,120.215z M291.289,109.877c-2.982,0-4.24,3.251-4.24,5.831
			c0,1.278,0.383,1.815,1.01,1.815c1.885,0,4.016-4.103,4.51-6.638l0.156-0.808C292.322,109.967,291.849,109.877,291.289,109.877z"
			/>
	</g>
	<g id="Incubation" display="none">
		<path display="inline" fill="#0054A4" d="M105.248,114.293c-0.313,0-0.761-0.021-1.141-0.067l-1.053,5.597h-2.372l2.865-15.109
			c1.165-0.045,2.418-0.09,3.828-0.09c2.955,0,4.61,1.388,4.61,3.738C111.985,111.764,108.897,114.293,105.248,114.293z
			 M106.95,106.615c-0.605,0-0.984,0-1.388,0.045l-1.052,5.508c0.313,0.066,0.649,0.089,1.03,0.089c2.126,0,3.939-1.545,3.939-3.56
			C109.479,107.443,108.808,106.615,106.95,106.615z"/>
		<path display="inline" fill="#0054A4" d="M119.617,110.778c-1.857-0.536-3.94,3.179-4.59,6.581l-0.469,2.463h-2.351l1.119-5.82
			c0.291-1.566,0.672-3.648,0.963-5.305h2.283c-0.156,0.917-0.448,2.015-1.052,3.76l0.044,0.022
			c1.231-2.552,2.506-4.342,4.545-4.006L119.617,110.778z"/>
		<path display="inline" fill="#0054A4" d="M124.021,120.045c-2.933,0-4.208-1.454-4.208-3.983c0-4.544,2.955-7.588,6.559-7.588
			c3.044,0,4.254,1.679,4.254,4.052C130.625,117.091,127.424,120.045,124.021,120.045z M126.013,110.51
			c-2.283,0-3.739,2.619-3.739,5.17c0,1.457,0.582,2.307,2.083,2.307c2.104,0,3.783-2.282,3.783-5.193
			C128.139,111.316,127.49,110.51,126.013,110.51z"/>
		<path display="inline" fill="#0054A4" d="M134.114,121.008c-0.561,2.865-1.858,4.455-4.812,4.455c-0.537,0-1.053-0.09-1.479-0.201
			l0.493-2.061c0.403,0.158,0.874,0.247,1.231,0.247c1.365,0,1.88-0.716,2.283-2.799l2.305-11.952h2.329L134.114,121.008z
			 M135.747,107.041c-0.826,0-1.432-0.672-1.409-1.433c0.022-0.896,0.783-1.567,1.633-1.567c0.829,0,1.433,0.649,1.411,1.41
			C137.361,106.369,136.6,107.041,135.747,107.041z"/>
		<path display="inline" fill="#0054A4" d="M140.292,115.076c-0.046,0.292-0.091,0.783-0.091,1.119c0,1.522,0.56,1.925,2.239,1.925
			c1.053,0,2.193-0.245,3.179-0.649v1.881c-1.142,0.426-2.507,0.693-3.962,0.693c-2.686,0-3.851-1.186-3.851-3.693
			c0-4.453,2.597-7.878,6.177-7.878c2.553,0,3.426,1.298,3.426,2.618C147.409,113.6,144.879,114.919,140.292,115.076z
			 M143.715,110.264c-1.611,0-2.687,1.455-3.133,3.156c3.044-0.112,4.477-0.738,4.477-2.014
			C145.058,110.667,144.543,110.264,143.715,110.264z"/>
		<path display="inline" fill="#0054A4" d="M156.72,110.891c-0.537-0.246-1.166-0.402-1.904-0.402c-2.596,0-3.781,2.909-3.781,5.238
			c0,1.141,0.402,2.193,2.148,2.193c0.807,0,1.656-0.18,2.328-0.493l-0.18,2.104c-0.783,0.268-1.768,0.492-2.82,0.492
			c-2.934,0-3.984-1.545-3.984-3.762c0-4.252,2.439-7.766,6.445-7.766c0.875,0,1.59,0.111,2.307,0.313L156.72,110.891z"/>
		<path display="inline" fill="#0054A4" d="M165.242,110.555h-2.844l-1.029,5.461c-0.291,1.547-0.068,1.971,0.939,1.971
			c0.605,0,1.051-0.066,1.477-0.156l-0.178,1.947c-0.693,0.156-1.523,0.246-2.17,0.246c-2.33,0-2.979-1.097-2.465-3.693l1.098-5.775
			h-2.105l0.383-1.857h2.082l0.672-3.537l2.438-0.514l-0.783,4.051h2.865L165.242,110.555z"/>
		<path display="inline" fill="#0054A4" d="M173.585,119.822h-2.352l2.127-11.125h2.35L173.585,119.822z M175.039,107.041
			c-0.85,0-1.453-0.672-1.432-1.433c0.023-0.896,0.785-1.567,1.635-1.567c0.828,0,1.432,0.649,1.41,1.41
			C176.628,106.369,175.867,107.041,175.039,107.041z"/>
		<path display="inline" fill="#0054A4" d="M186.164,119.822h-2.35l1.367-7.051c0.311-1.59,0.021-2.262-0.852-2.262
			c-1.793,0-3.986,3.984-4.479,6.67l-0.49,2.643h-2.352l1.119-5.82c0.357-1.857,0.717-3.806,0.961-5.305h2.33
			c-0.135,0.694-0.426,1.881-1.141,3.962l0.043,0.022c1.053-2.193,2.709-4.23,4.947-4.23c2.105,0,2.775,1.498,2.352,3.76
			L186.164,119.822z"/>
		<path display="inline" fill="#0054A4" d="M196.859,119.822h-2.395l2.865-15.109h2.395L196.859,119.822z"/>
		<path display="inline" fill="#0054A4" d="M209.417,119.822h-2.352l1.365-7.051c0.314-1.59,0.021-2.262-0.85-2.262
			c-1.791,0-3.984,3.984-4.477,6.67l-0.494,2.643h-2.35l1.121-5.82c0.357-1.857,0.715-3.806,0.961-5.305h2.328
			c-0.135,0.694-0.424,1.881-1.143,3.962l0.047,0.022c1.051-2.193,2.707-4.23,4.945-4.23c2.104,0,2.775,1.498,2.35,3.76
			L209.417,119.822z"/>
		<path display="inline" fill="#0054A4" d="M221.054,110.891c-0.537-0.246-1.164-0.402-1.904-0.402
			c-2.594,0-3.779,2.909-3.779,5.238c0,1.141,0.4,2.193,2.146,2.193c0.807,0,1.658-0.18,2.33-0.493l-0.18,2.104
			c-0.785,0.268-1.768,0.492-2.822,0.492c-2.932,0-3.982-1.545-3.982-3.762c0-4.252,2.439-7.766,6.445-7.766
			c0.873,0,1.59,0.111,2.307,0.313L221.054,110.891z"/>
		<path display="inline" fill="#0054A4" d="M232.111,114.517c-0.357,1.881-0.717,3.851-0.984,5.306h-2.305
			c0.133-0.695,0.424-1.881,1.117-3.963l-0.043-0.022c-1.031,2.194-2.686,4.231-4.926,4.231c-2.104,0-2.775-1.499-2.35-3.76
			l1.453-7.611h2.33l-1.344,7.051c-0.314,1.59-0.021,2.261,0.85,2.261c1.793,0,3.986-3.983,4.477-6.67l0.494-2.642h2.35
			L232.111,114.517z"/>
		<path display="inline" fill="#0054A4" d="M238.244,120.002c-1.389,0-2.598-0.135-3.693-0.382l3.088-16.139h2.328l-0.963,5.104
			c-0.178,0.918-0.471,1.903-1.23,4.163l0.045,0.023c1.119-2.463,2.797-4.32,4.924-4.32c1.656,0,2.551,1.074,2.551,3.447
			C245.292,116.039,243.123,120.002,238.244,120.002z M241.869,110.51c-1.881,0-4.029,4.097-4.5,6.581l-0.156,0.851
			c0.426,0.112,0.873,0.201,1.432,0.201c2.979,0,4.232-3.245,4.232-5.819C242.876,111.047,242.496,110.51,241.869,110.51z"/>
		<path display="inline" fill="#0054A4" d="M255.296,119.822h-2.328c0.203-0.918,0.582-2.238,1.188-4.074l-0.045-0.021
			c-0.85,1.678-2.461,4.342-4.969,4.342c-1.633,0-2.529-1.074-2.529-3.447c0-4.142,2.172-8.104,7.051-8.104
			c1.297,0,2.551,0.113,3.693,0.336C256.259,114.517,255.767,117.068,255.296,119.822z M253.261,110.376
			c-2.977,0-4.23,3.245-4.23,5.819c0,1.275,0.379,1.813,1.008,1.813c1.879,0,4.004-4.097,4.498-6.626l0.156-0.805
			C254.291,110.465,253.82,110.376,253.261,110.376z"/>
		<path display="inline" fill="#0054A4" d="M265.837,110.555h-2.844l-1.029,5.461c-0.289,1.547-0.066,1.971,0.941,1.971
			c0.605,0,1.053-0.066,1.479-0.156l-0.18,1.947c-0.693,0.156-1.521,0.246-2.172,0.246c-2.328,0-2.977-1.097-2.461-3.693
			l1.096-5.775h-2.104l0.379-1.857h2.082l0.672-3.537l2.439-0.514l-0.781,4.051h2.865L265.837,110.555z"/>
		<path display="inline" fill="#0054A4" d="M268.97,119.822h-2.35l2.127-11.125h2.35L268.97,119.822z M270.425,107.041
			c-0.85,0-1.455-0.672-1.432-1.433c0.021-0.896,0.781-1.567,1.633-1.567c0.828,0,1.432,0.649,1.41,1.41
			C272.015,106.369,271.253,107.041,270.425,107.041z"/>
		<path display="inline" fill="#0054A4" d="M276.646,120.045c-2.932,0-4.207-1.454-4.207-3.983c0-4.544,2.953-7.588,6.559-7.588
			c3.043,0,4.254,1.679,4.254,4.052C283.251,117.091,280.05,120.045,276.646,120.045z M278.64,110.51c-2.283,0-3.74,2.619-3.74,5.17
			c0,1.457,0.582,2.307,2.082,2.307c2.105,0,3.783-2.282,3.783-5.193C280.765,111.316,280.117,110.51,278.64,110.51z"/>
		<path display="inline" fill="#0054A4" d="M293.679,119.822h-2.352l1.367-7.051c0.312-1.59,0.021-2.262-0.85-2.262
			c-1.793,0-3.986,3.984-4.479,6.67l-0.492,2.643h-2.35l1.119-5.82c0.357-1.857,0.717-3.806,0.961-5.305h2.328
			c-0.135,0.694-0.424,1.881-1.141,3.962l0.045,0.022c1.053-2.193,2.707-4.23,4.947-4.23c2.104,0,2.775,1.498,2.35,3.76
			L293.679,119.822z"/>
	</g>
	<g id="Project">
		<path fill="#0054A4" d="M236.4,114.176c-0.314,0-0.762-0.021-1.145-0.068l-1.053,5.604h-2.375l2.867-15.126
			c1.166-0.044,2.42-0.09,3.832-0.09c2.959,0,4.617,1.39,4.617,3.742C243.144,111.644,240.05,114.176,236.4,114.176z
			 M238.101,106.49c-0.604,0-0.986,0-1.389,0.043l-1.053,5.514c0.314,0.067,0.65,0.09,1.029,0.09c2.129,0,3.945-1.547,3.945-3.562
			C240.634,107.318,239.962,106.49,238.101,106.49z"/>
		<path fill="#0054A4" d="M250.558,110.657c-1.859-0.537-3.943,3.183-4.594,6.587l-0.469,2.467h-2.354l1.119-5.826
			c0.291-1.568,0.672-3.653,0.965-5.311h2.285c-0.156,0.918-0.449,2.016-1.055,3.764l0.045,0.021c1.232-2.554,2.51-4.346,4.551-4.01
			L250.558,110.657z"/>
		<path fill="#0054A4" d="M254.742,119.934c-2.936,0-4.213-1.456-4.213-3.988c0-4.549,2.957-7.596,6.566-7.596
			c3.047,0,4.258,1.682,4.258,4.056C261.353,116.977,258.148,119.934,254.742,119.934z M256.736,110.389
			c-2.285,0-3.74,2.621-3.74,5.176c0,1.457,0.58,2.309,2.082,2.309c2.105,0,3.787-2.285,3.787-5.199
			C258.865,111.195,258.214,110.389,256.736,110.389z"/>
		<path fill="#0054A4" d="M264.623,120.898c-0.561,2.867-1.859,4.458-4.818,4.458c-0.537,0-1.053-0.091-1.479-0.202l0.494-2.061
			c0.402,0.157,0.873,0.246,1.23,0.246c1.369,0,1.883-0.717,2.285-2.802l2.309-11.964h2.33L264.623,120.898z M266.257,106.916
			c-0.828,0-1.434-0.672-1.412-1.434c0.021-0.897,0.785-1.57,1.637-1.57c0.828,0,1.436,0.65,1.41,1.412
			C267.871,106.244,267.109,106.916,266.257,106.916z"/>
		<path fill="#0054A4" d="M270.582,114.959c-0.045,0.293-0.092,0.785-0.092,1.121c0,1.523,0.562,1.926,2.242,1.926
			c1.055,0,2.195-0.245,3.182-0.648v1.882c-1.143,0.425-2.51,0.694-3.965,0.694c-2.689,0-3.855-1.188-3.855-3.697
			c0-4.459,2.6-7.887,6.184-7.887c2.557,0,3.43,1.299,3.43,2.621C277.707,113.481,275.175,114.803,270.582,114.959z
			 M274.009,110.143c-1.613,0-2.689,1.455-3.137,3.158c3.047-0.111,4.48-0.738,4.48-2.016
			C275.353,110.546,274.837,110.143,274.009,110.143z"/>
		<path fill="#0054A4" d="M286.802,110.77c-0.537-0.246-1.166-0.402-1.906-0.402c-2.598,0-3.785,2.912-3.785,5.242
			c0,1.143,0.402,2.196,2.15,2.196c0.809,0,1.66-0.179,2.332-0.493l-0.18,2.105c-0.785,0.269-1.77,0.493-2.824,0.493
			c-2.936,0-3.988-1.546-3.988-3.765c0-4.256,2.443-7.775,6.453-7.775c0.875,0,1.59,0.113,2.309,0.314L286.802,110.77z"/>
		<path fill="#0054A4" d="M295.109,110.434h-2.848l-1.029,5.467c-0.291,1.547-0.068,1.973,0.939,1.973
			c0.607,0,1.055-0.067,1.48-0.157l-0.178,1.948c-0.695,0.158-1.525,0.247-2.176,0.247c-2.33,0-2.979-1.098-2.463-3.696l1.098-5.781
			h-2.107l0.381-1.859h2.084l0.672-3.541l2.443-0.516l-0.783,4.057h2.867L295.109,110.434z"/>
	</g>
	<g id="Your_Open_Source_Compass" display="none">
		<path display="inline" fill="#A0CE67" d="M87.951,115.211l-0.869,4.748h-1.704l0.87-4.748l-2.346-8.445h1.779l1.172,4.459
			c0.208,0.779,0.378,1.543,0.53,2.285h0.019c0.437-0.801,0.983-1.659,1.532-2.541l2.648-4.203h1.91L87.951,115.211"/>
		<path display="inline" fill="#A0CE67" d="M94.741,120.137c-2.366,0-3.444-1.23-3.444-3.459c0-3.871,2.382-6.607,5.448-6.607
			c2.479,0,3.499,1.445,3.499,3.498C100.244,117.576,97.575,120.137,94.741,120.137 M96.479,111.557
			c-2.061,0-3.441,2.383-3.441,4.828c0,1.445,0.569,2.248,1.986,2.248c1.834,0,3.443-2.035,3.443-4.869
			C98.467,112.336,97.842,111.557,96.479,111.557"/>
		<path display="inline" fill="#A0CE67" d="M108.849,119.959h-1.663c0.132-0.644,0.379-1.758,1.038-3.828h-0.035
			c-0.892,2.052-2.365,4.025-4.333,4.025c-1.739,0-2.345-1.27-1.966-3.303l1.21-6.607h1.681l-1.151,6.215
			c-0.285,1.526-0.018,2.191,0.813,2.191c1.739,0,3.688-3.814,4.124-6.217l0.396-2.189h1.664L108.849,119.959"/>
		<path display="inline" fill="#A0CE67" d="M117.947,111.771c-1.738-0.51-3.593,3.303-4.086,6.002l-0.396,2.186h-1.666l1.777-9.713
			h1.629c-0.153,0.84-0.416,1.875-0.966,3.578l0.037,0.02c1.061-2.365,2.197-4.085,4.011-3.773L117.947,111.771"/>
		<path display="inline" fill="#A0CE67" d="M127.311,120.157c-3.084,0-4.56-1.798-4.56-4.81c0-4.771,3.139-8.775,7.301-8.775
			c2.968,0,4.594,1.758,4.594,4.809C134.646,116.402,131.356,120.157,127.311,120.157 M129.769,108.153
			c-3.024,0-5.182,3.204-5.182,6.942c0,2.129,1.019,3.457,2.968,3.457c2.894,0,5.259-3.068,5.259-6.979
			C132.814,109.484,131.832,108.153,129.769,108.153"/>
		<path display="inline" fill="#A0CE67" d="M138.562,120.1c-0.472,0-0.89-0.042-1.324-0.119l-0.871,4.809h-1.662l2.665-14.543h1.666
			c-0.169,0.84-0.416,1.799-1.06,3.891l0.04,0.02c0.963-2.288,2.44-4.105,4.37-4.105c1.358,0,2.098,0.9,2.098,2.951
			C144.483,116.58,142.684,120.1,138.562,120.1 M141.796,111.557c-1.777,0-3.688,3.89-4.124,6.176l-0.15,0.744
			c0.397,0.135,0.965,0.232,1.363,0.232c2.763,0,3.876-2.973,3.876-5.374C142.762,112.064,142.385,111.557,141.796,111.557"/>
		<path display="inline" fill="#A0CE67" d="M147.585,115.678c-0.057,0.297-0.095,0.783-0.095,1.135c0,1.506,0.511,1.896,2.024,1.896
			c0.888,0,1.835-0.216,2.647-0.565v1.409c-0.908,0.369-2.005,0.584-3.234,0.584c-2.156,0-3.158-0.955-3.158-3.146
			c0-3.774,2.024-6.92,5.145-6.92c2.005,0,2.761,1.056,2.761,2.209C153.675,114.371,151.612,115.522,147.585,115.678
			 M150.725,111.398c-1.496,0-2.497,1.352-2.932,2.99c2.913-0.117,4.2-0.721,4.2-1.896
			C151.994,111.789,151.482,111.398,150.725,111.398"/>
		<path display="inline" fill="#A0CE67" d="M162.223,119.959h-1.662l1.152-6.215c0.285-1.524,0.02-2.188-0.83-2.188
			c-1.741,0-3.671,3.81-4.105,6.217l-0.397,2.186h-1.663l0.945-5.081c0.245-1.386,0.586-3.206,0.829-4.632h1.648
			c-0.116,0.646-0.378,1.758-1.041,3.832h0.039c0.886-2.053,2.383-4.027,4.348-4.027c1.739,0,2.327,1.271,1.969,3.303
			L162.223,119.959"/>
		<path display="inline" fill="#A0CE67" d="M176.9,108.371c-0.623-0.234-1.303-0.314-1.777-0.314c-1.891,0-2.742,1.115-2.742,2.17
			c0,2.385,3.896,2.465,3.896,5.592c0,2.442-2.082,4.339-5.048,4.339c-0.682,0-1.478-0.079-2.102-0.274l0.322-1.721
			c0.529,0.235,1.285,0.412,1.929,0.412c1.967,0,3.083-0.998,3.083-2.463c0-2.287-3.877-2.307-3.877-5.474
			c0-2.169,1.645-4.065,4.709-4.065c0.644,0,1.211,0.039,1.93,0.193L176.9,108.371"/>
		<path display="inline" fill="#A0CE67" d="M181.404,120.137c-2.364,0-3.445-1.23-3.445-3.459c0-3.871,2.386-6.607,5.45-6.607
			c2.479,0,3.499,1.445,3.499,3.498C186.908,117.576,184.241,120.137,181.404,120.137 M183.144,111.557
			c-2.062,0-3.443,2.383-3.443,4.828c0,1.445,0.566,2.248,1.984,2.248c1.835,0,3.442-2.035,3.442-4.869
			C185.127,112.336,184.505,111.557,183.144,111.557"/>
		<path display="inline" fill="#A0CE67" d="M195.512,119.959h-1.664c0.134-0.644,0.379-1.758,1.04-3.828h-0.038
			c-0.889,2.052-2.365,4.025-4.329,4.025c-1.744,0-2.349-1.27-1.969-3.303l1.209-6.607h1.684l-1.153,6.215
			c-0.283,1.526-0.02,2.191,0.816,2.191c1.737,0,3.688-3.814,4.121-6.217l0.396-2.189h1.666L195.512,119.959"/>
		<path display="inline" fill="#A0CE67" d="M204.591,111.771c-1.739-0.51-3.593,3.303-4.088,6.002l-0.393,2.186h-1.667l1.778-9.713
			h1.627c-0.151,0.84-0.417,1.875-0.965,3.578l0.037,0.02c1.059-2.365,2.195-4.085,4.011-3.773L204.591,111.771"/>
		<path display="inline" fill="#A0CE67" d="M211.815,111.907c-0.511-0.235-1.057-0.372-1.722-0.372
			c-2.382,0-3.497,2.776-3.497,4.986c0,1.014,0.319,2.053,1.968,2.053c0.735,0,1.529-0.177,2.118-0.469l-0.115,1.543
			c-0.66,0.254-1.531,0.468-2.479,0.468c-2.438,0-3.27-1.366-3.27-3.204c0-3.714,2.024-6.822,5.389-6.822
			c0.777,0,1.399,0.117,1.987,0.291L211.815,111.907"/>
		<path display="inline" fill="#A0CE67" d="M214.482,115.678c-0.057,0.297-0.094,0.783-0.094,1.135c0,1.506,0.51,1.896,2.026,1.896
			c0.884,0,1.832-0.216,2.646-0.565v1.409c-0.907,0.369-2.005,0.584-3.234,0.584c-2.155,0-3.157-0.955-3.157-3.146
			c0-3.774,2.022-6.92,5.142-6.92c2.006,0,2.763,1.056,2.763,2.209C220.573,114.371,218.511,115.522,214.482,115.678
			 M217.622,111.398c-1.494,0-2.496,1.352-2.931,2.99c2.91-0.117,4.198-0.721,4.198-1.896
			C218.889,111.789,218.378,111.398,217.622,111.398"/>
		<path display="inline" fill="#A0CE67" d="M235.836,108.682c-0.889-0.332-1.778-0.469-2.649-0.469
			c-3.705,0-5.199,3.753-5.199,7.076c0,1.896,0.757,3.227,3.215,3.227c1.059,0,2.098-0.235,2.969-0.646l-0.076,1.623
			c-1.019,0.391-2.212,0.624-3.402,0.624c-3.65,0-4.597-2.208-4.597-4.533c0-4.614,2.514-8.935,7.337-8.935
			c1.078,0,1.986,0.158,2.818,0.394L235.836,108.682"/>
		<path display="inline" fill="#A0CE67" d="M239.489,120.137c-2.366,0-3.443-1.23-3.443-3.459c0-3.871,2.382-6.607,5.447-6.607
			c2.477,0,3.498,1.445,3.498,3.498C244.991,117.576,242.327,120.137,239.489,120.137 M241.226,111.557
			c-2.061,0-3.439,2.383-3.439,4.828c0,1.445,0.564,2.248,1.982,2.248c1.837,0,3.442-2.035,3.442-4.869
			C243.211,112.336,242.59,111.557,241.226,111.557"/>
		<path display="inline" fill="#A0CE67" d="M259.309,119.959h-1.684l1.154-6.215c0.284-1.524,0.019-2.209-0.757-2.209
			c-1.608,0-3.574,3.599-4.066,6.238l-0.396,2.186h-1.665l1.153-6.215c0.284-1.524,0.037-2.209-0.776-2.209
			c-1.588,0-3.555,3.599-4.047,6.238l-0.397,2.186h-1.662l0.943-5.081c0.266-1.446,0.588-3.206,0.831-4.632h1.647
			c-0.111,0.646-0.379,1.779-1.041,3.832h0.039c0.868-2.033,2.344-4.027,4.274-4.027c1.21,0,1.892,0.684,1.892,1.895
			c0,0.606-0.152,1.174-0.454,2.15l0.037,0.02c0.87-2.09,2.346-4.064,4.275-4.064c1.702,0,2.288,1.271,1.908,3.303L259.309,119.959"
			/>
		<path display="inline" fill="#A0CE67" d="M265.117,120.1c-0.473,0-0.892-0.042-1.324-0.119l-0.872,4.809h-1.663l2.668-14.543
			h1.661c-0.167,0.84-0.416,1.799-1.057,3.891l0.035,0.02c0.968-2.288,2.441-4.105,4.372-4.105c1.36,0,2.097,0.9,2.097,2.951
			C271.034,116.58,269.24,120.1,265.117,120.1 M268.351,111.557c-1.779,0-3.689,3.89-4.126,6.176l-0.151,0.744
			c0.397,0.135,0.967,0.232,1.362,0.232c2.764,0,3.88-2.973,3.88-5.374C269.316,112.064,268.937,111.557,268.351,111.557"/>
		<path display="inline" fill="#A0CE67" d="M279.376,119.959h-1.683c0.171-0.837,0.529-2.129,1.098-3.947l-0.039-0.017
			c-0.681,1.503-2.1,4.162-4.386,4.162c-1.362,0-2.102-0.9-2.102-2.952c0-3.579,1.796-7.115,5.901-7.115
			c1.077,0,2.079,0.117,2.952,0.295C280.115,115.818,279.773,117.635,279.376,119.959 M277.881,111.479
			c-2.798,0-3.895,2.988-3.895,5.393c0,1.272,0.38,1.781,0.965,1.781c1.776,0,3.706-3.891,4.141-6.217l0.136-0.779
			C278.847,111.557,278.413,111.479,277.881,111.479"/>
		<path display="inline" fill="#A0CE67" d="M287.983,111.635c-0.456-0.156-0.945-0.236-1.416-0.236
			c-1.232,0-1.876,0.605-1.876,1.428c0,1.545,2.855,1.953,2.855,4.145c0,1.621-1.379,3.166-4.047,3.166
			c-0.624,0-1.136-0.037-1.607-0.138l0.302-1.562c0.492,0.154,1.001,0.254,1.532,0.254c1.229,0,2.061-0.509,2.061-1.525
			c0-1.543-2.837-1.8-2.837-4.145c0-1.664,1.287-2.951,3.727-2.951c0.663,0,1.137,0.059,1.61,0.137L287.983,111.635"/>
		<path display="inline" fill="#A0CE67" d="M295.095,111.635c-0.456-0.156-0.945-0.236-1.421-0.236
			c-1.229,0-1.872,0.605-1.872,1.428c0,1.545,2.855,1.953,2.855,4.145c0,1.621-1.378,3.166-4.045,3.166
			c-0.624,0-1.138-0.037-1.61-0.138l0.305-1.562c0.49,0.154,1.002,0.254,1.529,0.254c1.229,0,2.064-0.509,2.064-1.525
			c0-1.543-2.84-1.8-2.84-4.145c0-1.664,1.288-2.951,3.727-2.951c0.663,0,1.135,0.059,1.607,0.137L295.095,111.635"/>
	</g>
</g>
<g id="OSGeo">
	<path fill="#49A942" d="M107.322,56.194c-3.566,4.801-5.377,10.846-5.377,17.968c0,7.564,1.772,13.854,5.276,18.699
		c3.521,4.875,8.465,7.348,14.698,7.348c6.825,0,12.143-2.34,15.812-6.949c3.649-4.596,5.503-11.021,5.503-19.098
		c0-7.885-1.849-14.122-5.492-18.546c-3.653-4.443-8.977-6.696-15.823-6.696C115.821,48.92,110.914,51.37,107.322,56.194
		 M112.797,88.125c-2.177-3.713-3.281-8.412-3.281-13.963c0-5.77,1.076-10.387,3.192-13.718c2.096-3.295,5.197-4.966,9.214-4.966
		c9.245,0,13.737,6.111,13.737,18.685c0,6.166-1.191,11.018-3.538,14.416c-2.325,3.365-5.758,5.07-10.199,5.07
		C118.018,93.648,114.95,91.791,112.797,88.125"/>
	<path fill="#49A942" d="M151.834,52.611c-2.643,2.452-3.981,5.586-3.981,9.312c0,3.047,0.684,5.702,2.034,7.878
		c1.349,2.18,3.746,4.084,7.132,5.66l3.946,1.847c3.482,1.642,5.682,3.168,6.532,4.536c0.85,1.369,1.28,2.873,1.28,4.467
		c0,2.123-0.768,3.895-2.286,5.262c-1.521,1.376-3.571,2.076-6.103,2.076c-1.434,0-3.084-0.303-4.91-0.909
		c-1.825-0.6-3.366-1.358-4.583-2.257l-0.286-0.211l-2.647,6.689l0.18,0.119c3.111,2.076,6.912,3.129,11.299,3.129
		c4.999,0,9.047-1.319,12.041-3.922c3.006-2.609,4.532-5.833,4.532-9.584c0-3.428-0.695-6.295-2.069-8.53
		c-1.375-2.234-3.789-4.179-7.174-5.778l-4.022-1.91c-2.562-1.238-4.279-2.205-5.093-2.882c-0.803-0.661-1.439-1.497-1.888-2.481
		c-0.452-0.991-0.681-2.104-0.681-3.311c0-1.949,0.635-3.567,1.886-4.805c1.25-1.24,3.003-1.867,5.205-1.867
		c1.528,0,3.22,0.303,5.023,0.895c1.801,0.596,3.155,1.218,4.029,1.849l0.295,0.22l2.159-6.354l-0.141-0.119
		c-2.168-1.795-6.043-2.708-11.522-2.708C157.899,48.92,154.469,50.162,151.834,52.611"/>
	<path fill="#49A942" d="M187.21,56.094c-4.314,4.751-6.504,11.029-6.504,18.652c0,7.646,1.996,13.864,5.934,18.482
		c3.949,4.63,9.403,6.98,16.213,6.98c3.016,0,6.171-0.477,9.371-1.404c3.212-0.932,5.754-2.188,7.56-3.723l0.098-0.079V73.232
		h-14.013v6.219h6.778v11.115c-2.135,2.039-4.954,3.082-8.389,3.082c-4.91,0-8.837-1.713-11.68-5.099
		c-2.853-3.396-4.296-7.95-4.296-13.532c0-5.875,1.472-10.656,4.379-14.208c2.895-3.539,6.901-5.332,11.916-5.332
		c3.152,0,6.425,1.243,9.726,3.688l0.26,0.192l3.013-5.995l-0.16-0.138c-3.247-2.854-7.5-4.305-12.645-4.305
		C197.441,48.92,191.531,51.336,187.21,56.094"/>
	<path fill="#49A942" d="M231.083,67.17c-3.629,3.611-5.471,8.46-5.471,14.418c0,5.744,1.796,10.378,5.334,13.787
		c3.184,3.092,7.104,4.661,11.661,4.661c3.143,0,6.028-0.481,8.593-1.435c2.052-0.729,3.606-1.61,4.612-2.627l0.146-0.148
		l-2.948-5.039l-0.243,0.22c-2.367,2.09-5.366,3.151-8.918,3.151c-3.104,0-5.671-0.967-7.638-2.871
		c-2.18-2.141-3.293-5.246-3.343-9.209h25.761l0.054-0.199c0.34-1.203,0.512-2.535,0.512-3.959c0-4.631-1.443-8.404-4.299-11.213
		c-2.94-2.92-7.048-4.402-12.207-4.402C238.238,62.305,234.337,63.944,231.083,67.17 M236.043,70.855
		c1.854-1.771,4.188-2.67,6.932-2.67c2.938,0,5.293,0.914,6.991,2.722c1.487,1.595,2.227,3.617,2.286,5.968h-19.155
		C233.389,74.508,234.345,72.465,236.043,70.855"/>
	<path fill="#49A942" d="M268.197,67.503c-3.011,3.439-4.538,8.007-4.538,13.585c0,5.75,1.463,10.396,4.352,13.801
		c2.896,3.415,6.986,5.147,12.161,5.147c5.06,0,9.113-1.714,12.058-5.097c2.933-3.373,4.418-8.031,4.418-13.852
		c0-5.84-1.452-10.479-4.318-13.785c-2.877-3.316-6.965-4.998-12.157-4.998C275.246,62.305,271.214,64.054,268.197,67.503
		 M270.895,81.088c0-4.08,0.856-7.32,2.542-9.63c1.67-2.282,3.934-3.438,6.734-3.438c6.217,0,9.242,4.271,9.242,13.068
		c0,4.103-0.834,7.377-2.481,9.736c-1.623,2.324-3.897,3.5-6.761,3.5C273.928,94.324,270.895,89.996,270.895,81.088"/>
</g>
<g id="Compass">
	<path fill-rule="evenodd" clip-rule="evenodd" fill="#49A942" d="M54.232,117.368c-26.2-0.915-46.7-22.898-45.785-49.099
		c0.914-26.204,22.898-46.7,49.099-45.785c18.112,0.633,33.497,11.335,40.969,26.537c1.15,0.036,2.302,0.039,3.461-0.175
		C94.225,31.979,77.475,20,57.657,19.308c-27.99-0.978-51.47,20.919-52.448,48.911c-0.976,27.986,20.918,51.468,48.909,52.446
		c7.593,0.264,14.851-1.166,21.421-3.934c-0.317-0.983-0.514-2.108-0.841-3.215C68.439,116.223,61.5,117.621,54.232,117.368z"/>
	<g>
		<circle fill="#A0CE67" cx="55.67" cy="70.192" r="31.707"/>
	</g>
	<polygon fill="#FFFFFF" stroke="#A0CE67" stroke-width="2" stroke-miterlimit="6" points="61.494,53.061 26.327,4.407 
		38.873,63.876 3.379,93.238 49.515,86.588 78.884,121.407 72.411,75.859 107.593,46.548 	"/>
	<g>
		<polygon fill-rule="evenodd" clip-rule="evenodd" fill="#49A942" points="58.606,66.663 76.371,60.624 60.143,69.772 
			69.983,74.904 59.123,73.172 65.45,91.554 55.707,74.987 50.335,84.403 51.976,73.643 34.388,79.515 50.561,70.082 40.388,64.431 
			52.106,66.806 46.326,49.022 55.255,65.431 60.669,55.451 		"/>
	</g>
	<path fill="none" d="M47.934,90.854"/>
	<path fill="none" d="M60.669,55.451"/>
</g>
</svg>
