<?xml version="1.0" encoding="UTF-8" standalone="no"?>
<!DOCTYPE svg PUBLIC "-//W3C//DTD SVG 1.1//EN" "http://www.w3.org/Graphics/SVG/1.1/DTD/svg11.dtd">
<svg width="20" height="20" viewBox="0 0 580 581" version="1.1"
    xmlns="http://www.w3.org/2000/svg"
    xmlns:xlink="http://www.w3.org/1999/xlink" xml:space="preserve"
    xmlns:serif="http://www.serif.com/">
    <path d="M506.409,236.125L344.102,236.125L344.102,73.819L235.896,73.819L235.896,236.125L73.588,236.125L73.588,344.331L235.896,344.331L235.896,506.639L344.102,506.639L344.102,344.331L506.409,344.331L506.409,236.125Z" style="fill:rgb(8,129,32);"/>
    <path d="M579.997,0L0,0L0,580.457L579.997,580.457L579.997,0ZM549.997,30L549.997,550.457C549.997,550.457 30,550.457 30,550.457C30,550.457 30,30 30,30C30,30 549.997,30 549.997,30L549.997,30Z" style="fill:rgb(8,129,32);"/>
</svg>
